<?xml version="1.0" encoding="utf-8"?>
<!-- Generator: Adobe Illustrator 26.0.3, SVG Export Plug-In . SVG Version: 6.00 Build 0)  -->
<svg version="1.1" id="Layer_1" xmlns="http://www.w3.org/2000/svg" xmlns:xlink="http://www.w3.org/1999/xlink" x="0px" y="0px"
	 viewBox="0 0 2605 125" style="enable-background:new 0 0 2605 125;" xml:space="preserve">
<style type="text/css">
	.st0{display:none;}
	.st1{display:inline;fill:#FFFFFF;stroke:#000000;stroke-miterlimit:10;}
	.st2{display:inline;stroke:#000000;stroke-miterlimit:10;}
	.st3{display:none;fill:none;stroke:#FF0000;stroke-miterlimit:10;}
	.st4{fill:none;stroke:#FFFFFF;stroke-miterlimit:10;}
</style>
<g class="st0">
	<path class="st1" d="M783.98,378.08c0-26.48,0-52.96,0-79.44c604.56,0,1209.12,0,1813.68,0c0,9.52,0,19.04,0,28.56
		c-0.08-0.16-0.2-0.31-0.24-0.47c-0.47-2.47-1.32-4.78-3.02-6.68c-3.37-3.74-7.8-5.38-12.6-6.3c-5.49-1.05-11.06-0.78-16.59-0.93
		c-3.87-0.11-7.75-0.02-11.63,0.11c-5.3,0.17-10.6,0.37-15.89,0.73c-4.9,0.33-9.76,0.94-14.46,2.51
		c-7.58,2.53-12.29,7.59-13.76,15.53c-1.11,5.96-0.55,11.93-0.05,17.89c0.4,4.75,0.49,9.49-0.58,14.16
		c-1.53,6.67-4.69,12.53-13.94,13.51c-7.16,0.76-14.33,1.01-21.51,0.9c-0.57-0.01-1.17-0.26-1.69-0.52
		c-2.5-1.23-4.09-3.33-5.03-5.86c-2.42-6.51-4.17-13.22-5.58-20.02c-1.76-8.43-3.63-16.84-5.52-25.24
		c-1.02-4.55-3.03-8.56-6.79-11.45c-1.77,0.61-2.79,1.97-3.48,3.66c-1.44,3.53-2.66,7.14-5.5,9.97c-1.44,1.44-2.41,1.64-3.49-0.12
		c-0.17-0.27-0.33-0.55-0.48-0.83c-3.57-7.05-7.13-14.1-10.71-21.14c-1.29-2.54-2.65-5.06-4.1-7.82
		c-13.25,35.98-24.55,72.3-34.18,109.15c-0.24-0.4-0.38-0.77-0.49-1.15c-1.58-5.23-3.15-10.45-4.73-15.68
		c-0.31-1.03-0.32-1.03-1.23-0.6c2.13,7.02,4.25,14.04,6.38,21.07c9.76-37.26,21.09-73.95,34.4-110.34
		c0.79,1.52,1.43,2.76,2.07,3.99c2.85,5.53,5.7,11.06,8.54,16.6c1.31,2.55,2.54,5.15,3.91,7.67c0.85,1.57,3.06,1.93,4.19,0.67
		c1.27-1.42,2.54-2.9,3.45-4.55c1.17-2.12,1.94-4.45,2.94-6.66c0.5-1.11,0.99-2.31,2.48-2.58c2.12,2.11,4.11,4.32,4.9,7.35
		c1.19,4.59,2.56,9.14,3.57,13.77c2.21,10.16,3.74,20.48,6.99,30.4c0.9,2.73,1.69,5.5,3.54,7.79c1.42,1.75,3.12,3.35,5.42,3.41
		c7.62,0.2,15.24-0.02,22.82-1.01c6.77-0.88,10.81-4.78,12.94-11.03c1.79-5.25,1.91-10.66,1.53-16.09
		c-0.38-5.57-1.04-11.13-0.42-16.73c0.85-7.64,4.34-13.39,11.68-16.44c3.99-1.66,8.18-2.49,12.44-2.81
		c7.03-0.54,14.08-1.04,21.12-1.18c7.22-0.14,14.46,0.08,21.68,0.34c4.25,0.15,8.36,1.08,12.19,3.09c5.91,3.1,8.7,9.17,7.03,15.44
		c-1.18,4.4-4.18,6.6-8.73,6.24c-2.02-0.16-4.02-0.6-6.03-0.86c-2.61-0.34-5.01,0.19-7.04,1.96c-2.03,1.77-2.2,4.67-0.32,6.58
		c0.66,0.67,1.46,1.24,2.28,1.71c4.66,2.73,9.25,5.53,12.99,9.51c4.29,4.55,6.56,9.77,5.43,16.13c-1.05,5.9-4.71,9.45-10.63,9.9
		c-2.26,0.17-4.59-0.34-6.88-0.63c-3.24-0.4-6.46-1.16-9.71-1.25c-4.76-0.14-8.8,1.44-10.91,6.21c-0.49,1.11-1.45,1.53-2.63,1.53
		c-1.71-0.01-3.03-0.82-4.22-1.97c-3.03-2.9-6.6-4.71-10.77-5.27c-4.66-0.62-7.76,1.41-8.98,5.9c-0.19,0.69-0.35,1.39-0.57,2.07
		c-0.66,2.12-2.16,3.3-4.29,3.69c-2.51,0.47-4.63-0.44-6.51-2.02c-2.02-1.7-3.39-3.9-4.66-6.17c-0.34-0.61-0.68-1-1.33-0.16
		c0.96,1.49,1.85,3.05,2.93,4.48c1.58,2.1,3.45,3.89,6.08,4.63c3.32,0.92,7.89,0.06,9.01-5.07c0.14-0.62,0.32-1.24,0.5-1.85
		c0.75-2.55,2.41-4.08,5.04-4.51c2.76-0.44,5.39,0.2,7.73,1.53c2.13,1.21,4.06,2.77,6.02,4.26c3.14,2.39,6.17,1.74,8.14-1.62
		c0.72-1.22,1.82-2.36,3.01-3.14c2.66-1.73,5.74-1.93,8.79-1.54c3.99,0.51,7.93,1.45,11.92,1.84c6.5,0.64,11.55-2.46,13.42-8.84
		c2.13-7.31-0.14-13.5-5.2-18.88c-3.85-4.1-8.6-6.95-13.4-9.76c-0.68-0.4-1.34-0.89-1.88-1.46c-1.52-1.63-1.34-3.73,0.36-5.16
		c1.4-1.18,3.02-1.89,4.84-1.74c2.58,0.21,5.14,0.66,7.71,0.95c3.69,0.42,6.93-1.32,8.53-4.66c0.61-1.27,0.96-2.66,1.43-4
		c0,26.96,0,53.92,0,80.88c-604.56,0-1209.12,0-1813.68,0c0-11.04,0-22.08,0-33.12c0.55-0.04,1.11-0.12,1.66-0.12
		c520.9,0.04,1041.8,0.08,1562.7,0.06c5.4,0,10.8-0.89,16.2-1.31c5.75-0.45,10.36,1.5,13.26,6.67c0.96,1.72,1.64,3.59,2.62,5.77
		c0.22-0.56,0.46-0.88,0.42-1.16c-0.05-0.46-0.27-0.91-0.43-1.36c-1.5-4.14-3.75-7.68-7.9-9.63c-3.07-1.45-6.33-1.47-9.63-1.14
		c-4.36,0.44-8.72,1.21-13.09,1.21C1827.87,378.08,1305.92,378.08,783.98,378.08z"/>
	<path class="st2" d="M783.98,378.08c521.94,0,1043.89,0,1565.83-0.05c4.36,0,8.73-0.78,13.09-1.21c3.3-0.33,6.55-0.3,9.63,1.14
		c4.15,1.95,6.39,5.5,7.9,9.63c0.16,0.45,0.38,0.9,0.43,1.36c0.03,0.29-0.21,0.6-0.42,1.16c-0.98-2.18-1.66-4.05-2.62-5.77
		c-2.9-5.17-7.52-7.12-13.26-6.67c-5.4,0.42-10.8,1.31-16.2,1.31c-520.9,0.02-1041.8-0.02-1562.7-0.06c-0.55,0-1.11,0.08-1.66,0.12
		C783.98,378.72,783.98,378.4,783.98,378.08z"/>
	<path class="st2" d="M2597.66,331.28c-0.47,1.34-0.82,2.73-1.43,4c-1.6,3.34-4.84,5.08-8.53,4.66c-2.57-0.29-5.13-0.74-7.71-0.95
		c-1.81-0.15-3.44,0.56-4.84,1.74c-1.7,1.43-1.88,3.53-0.36,5.16c0.53,0.57,1.2,1.06,1.88,1.46c4.79,2.81,9.54,5.67,13.4,9.76
		c5.06,5.38,7.33,11.57,5.2,18.88c-1.86,6.38-6.92,9.48-13.42,8.84c-4-0.4-7.94-1.34-11.92-1.84c-3.05-0.39-6.13-0.19-8.79,1.54
		c-1.19,0.78-2.29,1.91-3.01,3.14c-1.97,3.35-5,4.01-8.14,1.62c-1.96-1.49-3.89-3.06-6.02-4.26c-2.35-1.33-4.97-1.98-7.73-1.53
		c-2.63,0.42-4.3,1.96-5.04,4.51c-0.18,0.61-0.37,1.23-0.5,1.85c-1.12,5.14-5.69,6-9.01,5.07c-2.63-0.73-4.51-2.52-6.08-4.63
		c-1.07-1.43-1.96-2.99-2.93-4.48c0.66-0.85,0.99-0.45,1.33,0.16c1.27,2.27,2.64,4.47,4.66,6.17c1.88,1.58,4,2.48,6.51,2.02
		c2.13-0.4,3.63-1.58,4.29-3.69c0.21-0.68,0.38-1.38,0.57-2.07c1.22-4.49,4.33-6.53,8.98-5.9c4.18,0.56,7.75,2.37,10.77,5.27
		c1.19,1.14,2.51,1.96,4.22,1.97c1.18,0.01,2.14-0.41,2.63-1.53c2.11-4.76,6.15-6.34,10.91-6.21c3.24,0.09,6.47,0.85,9.71,1.25
		c2.29,0.28,4.61,0.8,6.88,0.63c5.92-0.45,9.59-4,10.63-9.9c1.13-6.36-1.14-11.58-5.43-16.13c-3.75-3.97-8.34-6.78-12.99-9.51
		c-0.82-0.48-1.62-1.04-2.28-1.71c-1.88-1.91-1.71-4.81,0.32-6.58c2.03-1.77,4.43-2.29,7.04-1.96c2.01,0.26,4.01,0.7,6.03,0.86
		c4.55,0.36,7.56-1.85,8.73-6.24c1.68-6.27-1.12-12.35-7.03-15.44c-3.83-2.01-7.94-2.94-12.19-3.09
		c-7.22-0.26-14.46-0.48-21.68-0.34c-7.05,0.14-14.09,0.64-21.12,1.18c-4.26,0.32-8.45,1.16-12.44,2.81
		c-7.34,3.05-10.84,8.8-11.68,16.44c-0.62,5.59,0.03,11.15,0.42,16.73c0.37,5.44,0.26,10.85-1.53,16.09
		c-2.13,6.25-6.17,10.15-12.94,11.03c-7.59,0.99-15.2,1.21-22.82,1.01c-2.3-0.06-4.01-1.66-5.42-3.41
		c-1.85-2.28-2.65-5.05-3.54-7.79c-3.25-9.93-4.78-20.24-6.99-30.4c-1.01-4.63-2.38-9.18-3.57-13.77c-0.78-3.03-2.77-5.24-4.9-7.35
		c-1.49,0.27-1.98,1.47-2.48,2.58c-1,2.21-1.78,4.54-2.94,6.66c-0.91,1.65-2.18,3.14-3.45,4.55c-1.13,1.26-3.34,0.9-4.19-0.67
		c-1.37-2.52-2.6-5.12-3.91-7.67c-2.84-5.54-5.69-11.07-8.54-16.6c-0.64-1.24-1.28-2.47-2.07-3.99
		c-13.31,36.39-24.64,73.08-34.4,110.34c-2.13-7.03-4.26-14.05-6.38-21.07c0.92-0.43,0.92-0.44,1.23,0.6
		c1.58,5.23,3.15,10.45,4.73,15.68c0.11,0.38,0.25,0.75,0.49,1.15c9.62-36.85,20.92-73.17,34.18-109.15c1.45,2.76,2.8,5.27,4.1,7.82
		c3.58,7.04,7.14,14.1,10.71,21.14c0.14,0.28,0.31,0.56,0.48,0.83c1.08,1.76,2.04,1.56,3.49,0.12c2.84-2.83,4.06-6.43,5.5-9.97
		c0.69-1.69,1.71-3.05,3.48-3.66c3.76,2.89,5.77,6.9,6.79,11.45c1.88,8.4,3.76,16.81,5.52,25.24c1.42,6.8,3.17,13.51,5.58,20.02
		c0.94,2.53,2.53,4.62,5.03,5.86c0.53,0.26,1.12,0.51,1.69,0.52c7.19,0.1,14.35-0.14,21.51-0.9c9.25-0.98,12.41-6.84,13.94-13.51
		c1.07-4.67,0.98-9.42,0.58-14.16c-0.5-5.96-1.06-11.93,0.05-17.89c1.47-7.94,6.18-12.99,13.76-15.53c4.7-1.57,9.57-2.18,14.46-2.51
		c5.29-0.36,10.59-0.56,15.89-0.73c3.87-0.13,7.76-0.21,11.63-0.11c5.54,0.15,11.1-0.12,16.59,0.93c4.8,0.92,9.24,2.55,12.6,6.3
		c1.7,1.89,2.55,4.21,3.02,6.68c0.03,0.17,0.15,0.32,0.24,0.47C2597.66,328.56,2597.66,329.92,2597.66,331.28z"/>
</g>
<path class="st3" d="M2513.12,91.46c1.88,3.32,3.92,6.8,7.41,8.5c1.88,0.92,4.08,1.05,6.03,0.3c3.96-1.52,3.31-5.18,4.73-7.91
	c3.29-6.32,13.51-2.99,18.28,1.88c1.11,1.14,2.57,1.9,4.16,1.98c2.87,0.14,3.27-1.72,4.13-3.21c2.69-4.69,9.27-5.16,14.58-4.2
	c5.32,0.96,10.96,2.76,15.93,0.64c7.03-3,8.87-12.82,5.63-19.74c-3.47-7.41-10.93-12.1-17.97-16.1c-0.82-0.46-1.54-1.09-2.06-1.87
	c-2.61-4.02,2.16-7.34,6.07-7.26c3.41,0.07,6.8,1.51,10.16,0.9c8.17-1.5,9.07-14.24,2.97-19.89c-6.09-5.64-15.23-6.03-23.54-6.11
	c-12.02-0.11-24.07-0.22-36,1.18c-7,0.82-14.48,2.44-19.18,7.68c-6.4,7.13-5.34,17.97-4.55,27.52c0.79,9.55,0.04,20.95-8.06,26.07
	c-4.66,2.94-23.28,3.01-28.79,2.88"/>
<path class="st3" d="M2380.84,96.29c2.01,6.65,4.03,13.29,6.04,19.94c3.73-14.58,7.75-29.09,12.05-43.51
	c4.28-14.36,8.85-28.63,13.7-42.81c2.74-8,5.56-15.97,8.47-23.91c2.59,4.97,5.19,9.94,7.78,14.91c2.79,4.8,4.55,10.09,7.49,14.78
	c1.17,1.17,3.23,0.88,3.81-0.88c0,0,0.59-0.59,0.88-0.88c3.24-3.24,3.52-7.63,5.87-11.15c0.59-0.59,1.17-0.59,1.76-1.17
	c1.76,1.76,3.52,3.52,4.7,5.87c4.7,12.91,5.87,26.41,9.39,39.91c2.35,6.46,2.93,15.26,10.27,17.31"/>
<path class="st3" d="M2347,84.5c12.32,0.88,21.85-5.19,29.37,2.94c2.11,2.28,3.27,5.27,4.2,8.18"/>
<line class="st3" x1="2347" y1="84.5" x2="784" y2="84.5"/>
<path class="st4" d="M0.5,82.5l2371.53,2c0.73,0,1.44,0.2,2.04,0.61c1.58,1.07,4.51,3.72,5.93,9.39c0.62,2.49,5.03,15.98,6.51,20.51
	c0.15,0.46,0.81,0.45,0.95-0.01l33.18-107.35c0.13-0.42,0.71-0.48,0.92-0.09l15.04,28.19c0.19,0.35,0.68,0.4,0.93,0.09l10.88-13.61
	c0.25-0.31,0.75-0.22,0.87,0.16l18.65,58.74c0.65,2.06,2.51,3.5,4.67,3.6c7.9,0.39,26.53,0.63,32.4-5.23c3-3,4-8,4-8s1.25-4.43,1-11
	s-1-19-1-19s0.77-9.28,6-14s12-6,16-7s30.11-1,38-1c3,0,6.17-0.32,9,0c5.06,0.58,9,2,9,2s10,3.95,10,14c0,11-9,10-9,10
	s-11.01-2.48-14,2c-4,6,9,10,9,10s14.99,5.09,13,21c-1,8-6.96,10.19-11,11c-5,1-13.77-2.42-21-1c-3.72,0.73-4.63,4.01-6,6
	c-1.08,1.57-3,2-3,2c0.22-0.02-2,0-5-2c-3.5-2.33-8.23-6-11-6c-8,0-9,7-9,7s0,6-8,5c-6.28-0.78-9-9-9-9"/>
</svg>
